<svg width="16" height="16" viewBox="0 0 16 16" fill="none" xmlns="http://www.w3.org/2000/svg">
<path d="M14.4102 1.625H1.3125C0.574219 1.625 0 2.22656 0 2.9375V12.5625C0 13.3008 0.574219 13.875 1.3125 13.875H14.4102C15.1484 13.875 15.75 13.3008 15.75 12.5625V2.9375C15.75 2.22656 15.1484 1.625 14.4102 1.625ZM1.47656 2.9375H14.2461C14.3555 2.9375 14.4102 3.01953 14.4102 3.10156V4.25H1.3125V3.10156C1.3125 3.01953 1.36719 2.9375 1.47656 2.9375ZM14.2461 12.5625H1.47656C1.36719 12.5625 1.3125 12.5078 1.3125 12.3984V7.75H14.4102V12.3984C14.4102 12.5078 14.3555 12.5625 14.2461 12.5625ZM5.25 9.82812C5.25 9.66406 5.08594 9.5 4.92188 9.5H2.95312C2.76172 9.5 2.625 9.66406 2.625 9.82812V10.9219C2.625 11.1133 2.76172 11.25 2.95312 11.25H4.92188C5.08594 11.25 5.25 11.1133 5.25 10.9219V9.82812ZM10.5 9.82812C10.5 9.66406 10.3359 9.5 10.1719 9.5H6.45312C6.26172 9.5 6.125 9.66406 6.125 9.82812V10.9219C6.125 11.1133 6.26172 11.25 6.45312 11.25H10.1719C10.3359 11.25 10.5 11.1133 10.5 10.9219V9.82812Z" fill="#666464"/>
</svg>
