<svg width="16" height="14" viewBox="0 0 16 14" fill="none" xmlns="http://www.w3.org/2000/svg">
<path d="M15 6H1C0.445313 6 0 6.44531 0 7C0 7.55469 0.445313 8 1 8H1.11719L2.01563 13.1719C2.10156 13.6484 2.51563 14 3 14H13C13.4844 14 13.8984 13.6484 13.9844 13.1719L14.8828 8H15C15.5547 8 16 7.55469 16 7C16 6.44531 15.5547 6 15 6ZM3.78906 12.25C3.77344 12.25 3.76563 12.25 3.75 12.25C3.49219 12.25 3.27344 12.0469 3.25 11.7891L3 8.53906C2.97656 8.26562 3.1875 8.02344 3.46094 8C3.73438 7.97656 3.97656 8.1875 4 8.46094L4.25 11.7109C4.27344 11.9844 4.0625 12.2266 3.78906 12.25ZM7 11.75C7 12.0234 6.77344 12.25 6.5 12.25C6.22656 12.25 6 12.0234 6 11.75V8.5C6 8.22656 6.22656 8 6.5 8C6.77344 8 7 8.22656 7 8.5V11.75ZM10 11.75C10 12.0234 9.77344 12.25 9.5 12.25C9.22656 12.25 9 12.0234 9 11.75V8.5C9 8.22656 9.22656 8 9.5 8C9.77344 8 10 8.22656 10 8.5V11.75ZM12.75 11.7891C12.7266 12.0469 12.5078 12.25 12.25 12.25C12.2344 12.25 12.2266 12.25 12.2109 12.25C11.9375 12.2266 11.7266 11.9844 11.75 11.7109L12 8.46094C12.0234 8.1875 12.2656 7.97656 12.5391 8C12.8125 8.02344 13.0234 8.26562 13 8.53906L12.75 11.7891ZM3.71875 2.28125C3.82812 1.82031 4.22656 1.5 4.69531 1.5H6C6 1.77344 6.22656 2 6.5 2H9.5C9.77344 2 10 1.77344 10 1.5H11.3047C11.7734 1.5 12.1719 1.82031 12.2813 2.28125L13.0078 5.5H14.0391L13.25 2.05469C13.0469 1.14062 12.2422 0.5 11.3047 0.5H10C10 0.226562 9.77344 -9.53674e-07 9.5 -9.53674e-07H6.5C6.22656 -9.53674e-07 6 0.226562 6 0.5H4.69531C3.75781 0.5 2.95313 1.14062 2.75 2.05469L1.96094 5.5H2.99219L3.71875 2.28125Z" fill="#202020"/>
</svg>
