<svg width="14" height="14" viewBox="0 0 14 14" fill="none" xmlns="http://www.w3.org/2000/svg">
<path d="M14 2.1875C14 2.67996 13.609 3.13359 12.95 3.5C12.1543 3.94023 10.9703 4.25195 9.60586 4.34492C9.50742 4.29844 9.40352 4.25195 9.29961 4.2082C8.21953 3.75703 6.78672 3.5 5.25 3.5C5.02305 3.5 4.80156 3.50547 4.58008 3.51641L4.55 3.5C3.89102 3.13359 3.5 2.67996 3.5 2.1875C3.5 0.979453 5.82695 0 8.75 0C11.6484 0 14 0.979453 14 2.1875ZM4.39414 4.40508C4.67305 4.38594 4.95742 4.375 5.25 4.375C6.95078 4.375 8.46016 4.71133 9.41992 5.23359C10.098 5.60273 10.5 6.06211 10.5 6.5625C10.5 6.64727 10.4809 6.77852 10.4426 6.88242C10.3168 7.24336 9.95586 7.57422 9.48555 7.85586C9.48281 7.85586 9.47734 7.85859 9.47461 7.86133C9.46641 7.8668 9.4582 7.86953 9.45 7.875C8.49297 8.40547 6.96719 8.75 5.25 8.75C3.62031 8.75 2.1618 8.44102 1.19875 7.9543C1.14762 7.92695 1.09785 7.87773 1.04973 7.875C0.390469 7.50859 0 7.05469 0 6.5625C0 5.61094 1.46098 4.79883 3.5 4.50078C3.78711 4.45703 4.08516 4.42422 4.39414 4.40508ZM10.716 5.10234C11.4898 4.98203 12.198 4.79063 12.7996 4.5418C13.2453 4.35586 13.6582 4.12617 14 3.84453V4.8125C14 5.34023 13.5488 5.82695 12.8023 6.2043C12.4004 6.40664 11.9164 6.57617 11.3695 6.70742C11.3723 6.66094 11.375 6.61172 11.375 6.5625C11.375 5.96367 11.0852 5.47148 10.716 5.10234ZM10.5 9.1875C10.5 9.67969 10.109 10.1336 9.45 10.5C9.40078 10.5027 9.35156 10.552 9.30234 10.5793C8.33711 11.066 6.87969 11.375 5.25 11.375C3.53281 11.375 2.00758 11.0305 1.04973 10.5C0.390469 10.1336 8.20313e-06 9.67969 8.20313e-06 9.1875V8.21953C0.34043 8.50117 0.755234 8.73086 1.20121 8.9168C2.28156 9.36797 3.71328 9.625 5.25 9.625C6.78672 9.625 8.21953 9.36797 9.29961 8.9168C9.51289 8.8293 9.71797 8.72813 9.91211 8.61875C10.0789 8.52578 10.2348 8.42188 10.3824 8.3125C10.4234 8.28242 10.4617 8.24961 10.5 8.21953V9.1875ZM11.375 7.6043C11.8699 7.46758 12.373 7.34453 12.7996 7.1668C13.2453 6.98086 13.6582 6.75117 14 6.46953V7.4375C14 7.72461 13.8633 8.01172 13.5926 8.28242C13.1469 8.72812 12.3621 9.09453 11.3695 9.33242C11.3723 9.28594 11.375 9.23672 11.375 9.1875V7.6043ZM5.25 12.25C6.78672 12.25 8.21953 11.993 9.29961 11.5418C9.74531 11.3559 10.1582 11.1262 10.5 10.8445V11.8125C10.5 13.0211 8.14844 14 5.25 14C2.35047 14 8.20313e-06 13.0211 8.20313e-06 11.8125V10.8445C0.34043 11.1262 0.755234 11.3559 1.20121 11.5418C2.28156 11.993 3.71328 12.25 5.25 12.25Z" fill="#666464"/>
</svg>
