<?xml version="1.0" encoding="utf-8"?>
<!-- Generator: Adobe Illustrator 16.0.2, SVG Export Plug-In . SVG Version: 6.00 Build 0)  -->
<!DOCTYPE svg PUBLIC "-//W3C//DTD SVG 1.1//EN" "http://www.w3.org/Graphics/SVG/1.1/DTD/svg11.dtd">
<svg version="1.1" id="Layer_1" xmlns="http://www.w3.org/2000/svg" xmlns:xlink="http://www.w3.org/1999/xlink" x="0px" y="0px"
	 width="470px" height="470px" viewBox="0 0 470 470" enable-background="new 0 0 470 470" xml:space="preserve">
<g>
	<path fill-rule="evenodd" clip-rule="evenodd" fill="#F55652" d="M223.58,10.98c8.199,0,16.399,0,24.598,0
		c6.141,0.974,12.332,1.705,18.414,2.962c40.105,8.292,73.345,28.114,98.133,60.786c31.42,41.416,40.987,87.802,28.813,138.458
		c-8.425,35.051-24.143,67.063-41.897,98.105c-27.481,48.046-60.492,92.2-96.075,134.479c-4.138,4.527-8.222,11.698-16.173,15.007
		c-3.851,1.473-5.851,0.368-7.028,0c-5.031-2.193-8.713-6.384-12.129-10.379c-29.32-34.288-56.789-69.989-81.152-108.013
		c-22.471-35.07-42.461-71.368-55.8-111.045c-13.606-40.471-14.796-80.95,2.589-120.358c23.834-54.026,65.216-86.872,123.644-97.587
		C214.195,12.537,218.892,11.783,223.58,10.98z M236.002,264.868c49.679-0.034,89.506-40.165,89.485-90.167
		c-0.02-49.008-40.394-89.076-89.73-89.05c-49.448,0.026-89.517,40.204-89.488,89.734
		C146.297,224.838,186.475,264.903,236.002,264.868z"/>
	<path fill-rule="evenodd" clip-rule="evenodd" fill="#111212" d="M238.376,127.006 M239.279,130.022"/>
	<path fill-rule="evenodd" clip-rule="evenodd" fill="#46B0B2" d="M239.279,130.022"/>
	<path fill-rule="evenodd" clip-rule="evenodd" fill="#49B7B9" d="M239.959,464.255"/>
</g>
<g>
	<path fill-rule="evenodd" clip-rule="evenodd" fill="#151515" d="M225.557,193.16c-7.708,0-14.987-0.064-22.266,0.028
		c-3.478,0.045-7.411,0.022-8.291-3.8c-0.552-2.393,0.686-5.819,2.237-7.979c16.999-23.672,34.219-47.186,51.381-70.74
		c0.784-1.076,1.38-2.596,2.445-3.099c2.174-1.026,5.318-2.729,6.76-1.897c1.905,1.102,3.754,4.492,3.522,6.676
		c-0.61,5.752-2.362,11.382-3.653,17.062c-2.358,10.372-4.714,20.744-7.217,31.766c7.695,0,14.978-0.001,22.261,0.001
		c1.666,0.001,3.348-0.136,4.994,0.048c5.383,0.603,7.68,5.261,4.535,9.638c-5.44,7.572-11.143,14.958-16.738,22.42
		c-12.888,17.188-25.761,34.387-38.683,51.548c-2.082,2.766-4.125,6.178-8.459,4.113c-4.097-1.951-4.11-5.354-3.183-9.352
		C218.731,224.373,222.023,209.1,225.557,193.16z M266.259,172.891c-7.848,0-14.303,0.029-20.758-0.008
		c-6.962-0.04-9.015-2.624-7.497-9.309c1.361-5.995,2.747-11.986,4.039-17.997c0.315-1.468,0.31-3.005,0.452-4.511
		c-0.407-0.139-0.813-0.277-1.221-0.416c-9.686,13.28-19.371,26.56-29.751,40.791c7.348,0,13.428-0.05,19.507,0.014
		c6.271,0.066,8.458,2.747,7.066,8.911c-1.716,7.604-3.679,15.151-5.452,22.742c-0.178,0.76,0.216,1.652,0.544,3.781
		C244.462,201.891,254.978,187.9,266.259,172.891z"/>
	<path fill-rule="evenodd" clip-rule="evenodd" fill="#DB3A3C" d="M266.259,172.891c-11.281,15.009-21.797,29-33.07,43.999
		c-0.328-2.129-0.722-3.021-0.544-3.781c1.773-7.591,3.736-15.139,5.452-22.742c1.392-6.164-0.795-8.845-7.066-8.911
		c-6.079-0.063-12.159-0.014-19.507-0.014c10.38-14.231,20.065-27.511,29.751-40.791c0.407,0.139,0.813,0.277,1.221,0.416
		c-0.143,1.506-0.137,3.043-0.452,4.511c-1.292,6.011-2.678,12.002-4.039,17.997c-1.518,6.685,0.535,9.269,7.497,9.309
		C251.956,172.92,258.411,172.891,266.259,172.891z"/>
</g>
</svg>
